<mxfile host="app.diagrams.net" agent="Mozilla/5.0 (Windows NT 10.0; Win64; x64; rv:130.0) Gecko/20100101 Firefox/130.0" version="24.7.12">
  <diagram name="Page-1" id="A4-fh29KmzCsVx3kMs8a">
    <mxGraphModel dx="491" dy="610" grid="1" gridSize="10" guides="1" tooltips="1" connect="1" arrows="1" fold="1" page="1" pageScale="1" pageWidth="827" pageHeight="583" math="0" shadow="0">
      <root>
        <mxCell id="0" />
        <mxCell id="1" parent="0" />
        <mxCell id="neO5S-lF4_I81aoNwDPR-2" value="BezierCurve" style="rounded=0;whiteSpace=wrap;html=1;" vertex="1" parent="1">
          <mxGeometry x="294" y="20" width="120" height="60" as="geometry" />
        </mxCell>
        <mxCell id="neO5S-lF4_I81aoNwDPR-16" style="edgeStyle=orthogonalEdgeStyle;rounded=0;orthogonalLoop=1;jettySize=auto;html=1;exitX=1;exitY=0.5;exitDx=0;exitDy=0;entryX=0;entryY=0.5;entryDx=0;entryDy=0;" edge="1" parent="1" source="neO5S-lF4_I81aoNwDPR-6" target="neO5S-lF4_I81aoNwDPR-2">
          <mxGeometry relative="1" as="geometry" />
        </mxCell>
        <mxCell id="neO5S-lF4_I81aoNwDPR-6" value="JXGPointWrapper" style="rounded=0;whiteSpace=wrap;html=1;" vertex="1" parent="1">
          <mxGeometry x="154" y="20" width="120" height="60" as="geometry" />
        </mxCell>
        <mxCell id="neO5S-lF4_I81aoNwDPR-15" style="edgeStyle=orthogonalEdgeStyle;rounded=0;orthogonalLoop=1;jettySize=auto;html=1;exitX=1;exitY=0.5;exitDx=0;exitDy=0;entryX=0;entryY=0.5;entryDx=0;entryDy=0;" edge="1" parent="1" source="neO5S-lF4_I81aoNwDPR-14" target="neO5S-lF4_I81aoNwDPR-6">
          <mxGeometry relative="1" as="geometry" />
        </mxCell>
        <mxCell id="neO5S-lF4_I81aoNwDPR-14" value="JXG.Point" style="rounded=0;whiteSpace=wrap;html=1;" vertex="1" parent="1">
          <mxGeometry x="14" y="20" width="120" height="60" as="geometry" />
        </mxCell>
      </root>
    </mxGraphModel>
  </diagram>
</mxfile>
